      *******************************************************************************       
                      Control (Pilot) 2012 DVDRip 480p-Mp4-H264-AVC-AC3
      *******************************************************************************

                                    Release Notes
      -------------------------------------------------------------------------------
        Release Date...: 2012
        Genre..........: Sci-Fi, Drama
        Source.........: DVD
        Language.......: English
        Screenshots....: Yes
        Ripper/Encoder.: Handbrake 0.9.8
        Ripped by......: rndmfrd222
        Uploaded by....: rndmfrd222
        
        General

        Format                           : MPEG-4
        Format profile                   : Base Media / Version 2
        Codec ID                         : mp42
        File size                        : 246 MiB
        Duration                         : 20mn 19s
        Overall bit rate mode            : Variable
        Overall bit rate                 : 1 695 Kbps

        Video

        ID                               : 1
        Format                           : AVC
        Format/Info                      : Advanced Video Codec
        Format profile                   : Main@L3.0
        Format settings, CABAC           : Yes
        Format settings, ReFrames        : 4 frames
        Codec ID                         : avc1
        Codec ID/Info                    : Advanced Video Coding
        Duration                         : 20mn 19s
        Bit rate mode                    : Variable
        Bit rate                         : 1 500 Kbps
        Width                            : 704 pixels
        Height                           : 480 pixels
        Display aspect ratio             : 16:9
        Frame rate mode                  : Variable
        Frame rate                       : 23.976 fps
        Minimum frame rate               : 8.563 fps
        Maximum frame rate               : 29.970 fps
        Standard                         : NTSC
        Color space                      : YUV
        Chroma subsampling               : 4:2:0
        Bit depth                        : 8 bits
        Scan type                        : Progressive
        Bits/(Pixel*Frame)               : 0.185
        Stream size                      : 218 MiB (88%)
        Writing library                  : x264 core 120

        Audio

        ID                               : 2
        Format                           : AC-3
        Format/Info                      : Audio Coding 3
        Mode extension                   : CM (complete main)
        Codec ID                         : ac-3
        Duration                         : 20mn 19s
        Bit rate mode                    : Constant
        Bit rate                         : 192 Kbps
        Channel(s)                       : 2 channels
        Channel positions                : Front: L R
        Sampling rate                    : 48.0 KHz
        Bit depth                        : 16 bits
        Compression mode                 : Lossy
        Stream size                      : 27.9 MiB (11%)
        Language                         : English

        Enjoy :)
